<?xml version="1.0" standalone="no"?>
<!DOCTYPE svg PUBLIC "-//W3C//DTD SVG 20010904//EN"
 "http://www.w3.org/TR/2001/REC-SVG-20010904/DTD/svg10.dtd">
<svg version="1.0" xmlns="http://www.w3.org/2000/svg"
 width="402.000000pt" height="402.000000pt" viewBox="0 0 402.000000 402.000000"
 preserveAspectRatio="xMidYMid meet">
<metadata>
Created by potrace 1.11, written by Peter Selinger 2001-2013
</metadata>
<g transform="translate(0.000000,402.000000) scale(0.100000,-0.100000)"
fill="#000000" stroke="none">
<path d="M206 3104 c-88 -32 -171 -123 -193 -211 -22 -88 -2 -198 46 -260 21
-26 137 -155 200 -222 37 -39 173 -188 201 -220 8 -10 60 -67 115 -127 55 -59
126 -137 159 -172 l58 -64 -33 -36 c-19 -20 -45 -48 -59 -62 -14 -15 -41 -45
-60 -67 -36 -41 -193 -214 -220 -242 -91 -96 -111 -246 -48 -360 31 -56 78
-99 138 -129 46 -22 68 -27 135 -27 130 1 154 16 320 200 50 54 101 111 115
126 45 48 174 191 190 209 8 9 58 64 110 120 52 56 103 112 112 123 27 31 187
205 248 270 l55 58 1 -428 c1 -235 4 -443 8 -460 15 -77 77 -154 159 -199 43
-24 66 -29 132 -31 136 -4 141 -1 497 360 l308 312 315 -315 c357 -358 360
-360 490 -360 63 0 91 5 130 24 110 51 179 160 178 280 -2 127 -7 133 -359
486 -173 174 -314 319 -314 324 0 4 135 144 301 309 348 349 353 356 353 487
0 98 -20 151 -82 215 -59 61 -132 90 -222 89 -138 -2 -111 20 -728 -601 l-552
-556 0 464 c1 336 -3 474 -11 499 -46 132 -172 217 -309 207 -80 -5 -147 -34
-198 -84 -30 -30 -139 -149 -247 -269 -5 -6 -46 -51 -90 -99 -44 -48 -88 -97
-98 -109 -10 -12 -58 -64 -106 -116 -49 -52 -99 -108 -112 -123 l-24 -29 -25
24 c-14 13 -70 73 -125 133 -55 61 -102 112 -105 115 -3 3 -50 55 -105 115
-55 61 -102 112 -105 115 -4 3 -35 37 -69 75 -204 224 -237 247 -361 251 -45
1 -91 -4 -114 -12z"/>
</g>
</svg>
